<svg width="18" height="18" viewBox="0 0 18 18" fill="none" xmlns="http://www.w3.org/2000/svg">
<path d="M7.83767 5.60248C7.69517 5.60248 7.55265 5.55 7.44015 5.4375L5.04765 3.045L2.65514 5.4375C2.43764 5.655 2.07765 5.655 1.86015 5.4375C1.64265 5.22 1.64265 4.86 1.86015 4.6425L4.65017 1.85248C4.75517 1.74748 4.89765 1.6875 5.04765 1.6875C5.19765 1.6875 5.34017 1.74748 5.44517 1.85248L8.23515 4.6425C8.45265 4.86 8.45265 5.22 8.23515 5.4375C8.12265 5.55 7.98017 5.60248 7.83767 5.60248Z" fill="#292D32"/>
<path d="M5.04749 16.3125C4.73999 16.3125 4.48499 16.0575 4.48499 15.75V2.25C4.48499 1.9425 4.73999 1.6875 5.04749 1.6875C5.35499 1.6875 5.60999 1.9425 5.60999 2.25V15.75C5.60999 16.0575 5.35499 16.3125 5.04749 16.3125Z" fill="#292D32"/>
<path d="M12.96 16.3125C12.81 16.3125 12.6675 16.2525 12.5625 16.1475L9.7725 13.3575C9.555 13.14 9.555 12.78 9.7725 12.5625C9.99 12.345 10.35 12.345 10.5675 12.5625L12.96 14.955L15.3525 12.5625C15.57 12.345 15.93 12.345 16.1475 12.5625C16.365 12.78 16.365 13.14 16.1475 13.3575L13.3575 16.1475C13.2525 16.2525 13.1025 16.3125 12.96 16.3125Z" fill="#292D32"/>
<path d="M12.9525 16.3125C12.645 16.3125 12.39 16.0575 12.39 15.75V2.25C12.39 1.9425 12.645 1.6875 12.9525 1.6875C13.26 1.6875 13.515 1.9425 13.515 2.25V15.75C13.515 16.0575 13.2675 16.3125 12.9525 16.3125Z" fill="#292D32"/>
</svg>
