<svg width="24" height="24" viewBox="0 0 24 24" fill="none" xmlns="http://www.w3.org/2000/svg">
<path d="M10.94 22.65C10.46 22.65 9.98999 22.53 9.54999 22.29C8.66999 21.8 8.13999 20.91 8.13999 19.91V14.61C8.13999 14.11 7.80999 13.36 7.49999 12.98L3.75999 9.02001C3.12999 8.39001 2.64999 7.31001 2.64999 6.50001V4.20001C2.64999 2.60001 3.85999 1.35001 5.39999 1.35001H18.6C20.12 1.35001 21.35 2.58001 21.35 4.10001V6.30001C21.35 7.35001 20.72 8.54001 20.13 9.13001L15.8 12.96C15.38 13.31 15.05 14.08 15.05 14.7V19C15.05 19.89 14.49 20.92 13.79 21.34L12.41 22.23C11.96 22.51 11.45 22.65 10.94 22.65ZM5.39999 2.85001C4.69999 2.85001 4.14999 3.44001 4.14999 4.20001V6.50001C4.14999 6.87001 4.44999 7.59001 4.82999 7.97001L8.63999 11.98C9.14999 12.61 9.64999 13.66 9.64999 14.6V19.9C9.64999 20.55 10.1 20.87 10.29 20.97C10.71 21.2 11.22 21.2 11.61 20.96L13 20.07C13.28 19.9 13.56 19.36 13.56 19V14.7C13.56 13.63 14.08 12.45 14.83 11.82L19.11 8.03001C19.45 7.69001 19.86 6.88001 19.86 6.29001V4.10001C19.86 3.41001 19.3 2.85001 18.61 2.85001H5.39999Z" fill="#00A79D"/>
<path d="M6 10.75C5.86 10.75 5.73 10.71 5.6 10.64C5.25 10.42 5.14 9.95 5.36 9.6L10.29 1.7C10.51 1.35 10.97 1.24 11.32 1.46C11.67 1.68 11.78 2.14 11.56 2.49L6.63 10.39C6.49 10.62 6.25 10.75 6 10.75Z" fill="#00A79D"/>
</svg>
