<svg width="18" height="18" viewBox="0 0 18 18" fill="none" xmlns="http://www.w3.org/2000/svg">
<path d="M11.445 16.6875H6.555C2.8725 16.6875 1.2975 15.1125 1.2975 11.43V11.3325C1.2975 8.00252 2.61 6.39752 5.55 6.12002C5.85 6.09752 6.135 6.32252 6.165 6.63002C6.195 6.93752 5.97 7.21502 5.655 7.24502C3.3 7.46252 2.4225 8.57252 2.4225 11.34V11.4375C2.4225 14.49 3.5025 15.57 6.555 15.57H11.445C14.4975 15.57 15.5775 14.49 15.5775 11.4375V11.34C15.5775 8.55752 14.685 7.44752 12.285 7.24502C11.9775 7.21502 11.745 6.94502 11.775 6.63752C11.805 6.33002 12.0675 6.09752 12.3825 6.12752C15.3675 6.38252 16.7025 7.99502 16.7025 11.3475V11.445C16.7025 15.1125 15.1275 16.6875 11.445 16.6875Z" fill="#292D32"/>
<path d="M9 11.8125C8.6925 11.8125 8.4375 11.5575 8.4375 11.25V2.71503C8.4375 2.40753 8.6925 2.15253 9 2.15253C9.3075 2.15253 9.5625 2.40753 9.5625 2.71503V11.25C9.5625 11.5575 9.3075 11.8125 9 11.8125Z" fill="#292D32"/>
<path d="M11.5125 4.95002C11.37 4.95002 11.2275 4.89752 11.115 4.78502L9.00001 2.67002L6.88501 4.78502C6.66751 5.00252 6.3075 5.00252 6.09 4.78502C5.8725 4.56752 5.8725 4.20752 6.09 3.99002L8.60251 1.47752C8.82001 1.26002 9.18 1.26002 9.3975 1.47752L11.91 3.99002C12.1275 4.20752 12.1275 4.56752 11.91 4.78502C11.805 4.89752 11.655 4.95002 11.5125 4.95002Z" fill="#292D32"/>
</svg>
