<svg width="43" height="42" viewBox="0 0 43 42" fill="none" xmlns="http://www.w3.org/2000/svg">
<path d="M19.1333 20.0583C19.05 20.05 18.95 20.05 18.8583 20.0583C16.875 19.9916 15.3 18.3666 15.3 16.3666C15.3 14.325 16.95 12.6666 19 12.6666C21.0417 12.6666 22.7 14.325 22.7 16.3666C22.6917 18.3666 21.1167 19.9916 19.1333 20.0583Z" fill="white" stroke="#292D32" stroke-width="1.5" stroke-linecap="round" stroke-linejoin="round"/>
<path d="M25.175 14.3334C26.7917 14.3334 28.0917 15.6417 28.0917 17.25C28.0917 18.825 26.8417 20.1084 25.2833 20.1667C25.2167 20.1584 25.1417 20.1584 25.0667 20.1667" fill="white"/>
<path d="M25.175 14.3334C26.7917 14.3334 28.0917 15.6417 28.0917 17.25C28.0917 18.825 26.8417 20.1084 25.2833 20.1667C25.2167 20.1584 25.1417 20.1584 25.0667 20.1667" stroke="#292D32" stroke-width="1.5" stroke-linecap="round" stroke-linejoin="round"/>
<path d="M14.9667 23.1334C12.95 24.4834 12.95 26.6834 14.9667 28.025C17.2583 29.5584 21.0167 29.5584 23.3083 28.025C25.325 26.675 25.325 24.475 23.3083 23.1334C21.025 21.6084 17.2667 21.6084 14.9667 23.1334Z" fill="white" stroke="#292D32" stroke-width="1.5" stroke-linecap="round" stroke-linejoin="round"/>
<path d="M26.7833 27.6666C27.3833 27.5416 27.95 27.3 28.4167 26.9416C29.7167 25.9666 29.7167 24.3583 28.4167 23.3833C27.9583 23.0333 27.4 22.8 26.8083 22.6666" fill="white"/>
<path d="M26.7833 27.6666C27.3833 27.5416 27.95 27.3 28.4167 26.9416C29.7167 25.9666 29.7167 24.3583 28.4167 23.3833C27.9583 23.0333 27.4 22.8 26.8083 22.6666" stroke="#292D32" stroke-width="1.5" stroke-linecap="round" stroke-linejoin="round"/>
</svg>
