<svg width="43" height="42" viewBox="0 0 43 42" fill="none" xmlns="http://www.w3.org/2000/svg">
<rect x="0.5" width="42" height="42" rx="12" fill="url(#paint0_linear_1_2992)"/>
<path d="M20.9333 13.5H15.7417C14.0833 13.5 13.25 14.3417 13.25 16.0167V29.3333H17.75V26.2083C17.75 25.8667 18.0333 25.5833 18.375 25.5833C18.7167 25.5833 19 25.8583 19 26.2083V29.3333H23.4167V16.0167C23.4167 14.3417 22.5917 13.5 20.9333 13.5ZM20.4583 21.625H16.3333C15.9917 21.625 15.7083 21.3417 15.7083 21C15.7083 20.6583 15.9917 20.375 16.3333 20.375H20.4583C20.8 20.375 21.0833 20.6583 21.0833 21C21.0833 21.3417 20.8 21.625 20.4583 21.625ZM20.4583 18.5H16.3333C15.9917 18.5 15.7083 18.2167 15.7083 17.875C15.7083 17.5333 15.9917 17.25 16.3333 17.25H20.4583C20.8 17.25 21.0833 17.5333 21.0833 17.875C21.0833 18.2167 20.8 18.5 20.4583 18.5Z" fill="white"/>
<path d="M30.6667 28.7084H28.775V26.2084C29.5667 25.95 30.1417 25.2083 30.1417 24.3333V22.6667C30.1417 21.575 29.25 20.6833 28.1583 20.6833C27.0667 20.6833 26.175 21.575 26.175 22.6667V24.3333C26.175 25.2 26.7417 25.9333 27.5167 26.2V28.7084H12.3333C11.9917 28.7084 11.7083 28.9917 11.7083 29.3334C11.7083 29.675 11.9917 29.9584 12.3333 29.9584H28.1083C28.125 29.9584 28.1333 29.9667 28.15 29.9667C28.1667 29.9667 28.175 29.9584 28.1917 29.9584H30.6667C31.0083 29.9584 31.2917 29.675 31.2917 29.3334C31.2917 28.9917 31.0083 28.7084 30.6667 28.7084Z" fill="white"/>
<defs>
<linearGradient id="paint0_linear_1_2992" x1="21.5" y1="0" x2="21.5" y2="42" gradientUnits="userSpaceOnUse">
<stop stop-color="#00A79D"/>
<stop offset="1" stop-color="#6EC282"/>
</linearGradient>
</defs>
</svg>
