<svg width="43" height="42" viewBox="0 0 43 42" fill="none" xmlns="http://www.w3.org/2000/svg">
<path d="M21.5 26.625C21.1583 26.625 20.875 26.3417 20.875 26V23.5C20.875 23.1583 21.1583 22.875 21.5 22.875C21.8417 22.875 22.125 23.1583 22.125 23.5V26C22.125 26.3417 21.8417 26.625 21.5 26.625Z" fill="#292D32"/>
<path d="M26.1667 29.8H16.8333C15.3167 29.8 13.9333 28.6333 13.6833 27.1417L12.575 20.5C12.3917 19.4667 12.9 18.1417 13.725 17.4833L19.5 12.8583C20.6167 11.9583 22.375 11.9667 23.5 12.8667L29.275 17.4833C30.0917 18.1417 30.5917 19.4667 30.425 20.5L29.3167 27.1333C29.0667 28.6083 27.65 29.8 26.1667 29.8ZM21.4917 13.4417C21.05 13.4417 20.6083 13.575 20.2833 13.8333L14.5083 18.4667C14.0417 18.8417 13.7083 19.7083 13.8083 20.3L14.9167 26.9333C15.0667 27.8083 15.9417 28.55 16.8333 28.55H26.1667C27.0583 28.55 27.9333 27.8083 28.0833 26.925L29.1917 20.2917C29.2833 19.7083 28.95 18.825 28.4917 18.4583L22.7167 13.8417C22.3833 13.575 21.9333 13.4417 21.4917 13.4417Z" fill="#292D32"/>
</svg>
