<svg width="43" height="42" viewBox="0 0 43 42" fill="none" xmlns="http://www.w3.org/2000/svg">
<path d="M14.4167 29.3333V15.1666C14.4167 13.5 15.5333 12.6666 16.9167 12.6666H23.5833C24.9667 12.6666 26.0833 13.5 26.0833 15.1666V29.3333H14.4167Z" stroke="#292D32" stroke-width="1.5" stroke-linecap="round" stroke-linejoin="round"/>
<path d="M13.1667 29.3334H27.3333" stroke="#292D32" stroke-width="1.5" stroke-linecap="round" stroke-linejoin="round"/>
<path d="M18.4917 19.3333H22.0167C22.8833 19.3333 23.5917 18.9167 23.5917 17.7583V16.7333C23.5917 15.575 22.8833 15.1583 22.0167 15.1583H18.4917C17.625 15.1583 16.9167 15.575 16.9167 16.7333V17.7583C16.9167 18.9167 17.625 19.3333 18.4917 19.3333Z" stroke="#292D32" stroke-width="1.5" stroke-linecap="round" stroke-linejoin="round"/>
<path d="M16.9167 21.8334H19.4167" stroke="#292D32" stroke-width="1.5" stroke-linecap="round" stroke-linejoin="round"/>
<path d="M26.0833 24.3417L29.8333 24.3333V19.3333L28.1667 18.5" stroke="#292D32" stroke-width="1.5" stroke-linecap="round" stroke-linejoin="round"/>
</svg>
