<svg width="43" height="42" viewBox="0 0 43 42" fill="none" xmlns="http://www.w3.org/2000/svg">
<path d="M29.8333 20.0833V14.4166C29.8333 13.1666 29.3 12.6666 27.975 12.6666H24.6083C23.2833 12.6666 22.75 13.1666 22.75 14.4166V20.0833C22.75 21.3333 23.2833 21.8333 24.6083 21.8333H27.975C29.3 21.8333 29.8333 21.3333 29.8333 20.0833Z" stroke="#292D32" stroke-width="1.5" stroke-linecap="round" stroke-linejoin="round"/>
<path d="M29.8333 27.5834V26.0834C29.8333 24.8334 29.3 24.3334 27.975 24.3334H24.6083C23.2833 24.3334 22.75 24.8334 22.75 26.0834V27.5834C22.75 28.8334 23.2833 29.3334 24.6083 29.3334H27.975C29.3 29.3334 29.8333 28.8334 29.8333 27.5834Z" stroke="#292D32" stroke-width="1.5" stroke-linecap="round" stroke-linejoin="round"/>
<path d="M20.25 21.9166V27.5833C20.25 28.8333 19.7167 29.3333 18.3917 29.3333H15.025C13.7 29.3333 13.1667 28.8333 13.1667 27.5833V21.9166C13.1667 20.6666 13.7 20.1666 15.025 20.1666H18.3917C19.7167 20.1666 20.25 20.6666 20.25 21.9166Z" stroke="#292D32" stroke-width="1.5" stroke-linecap="round" stroke-linejoin="round"/>
<path d="M20.25 14.4166V15.9166C20.25 17.1666 19.7167 17.6666 18.3917 17.6666H15.025C13.7 17.6666 13.1667 17.1666 13.1667 15.9166V14.4166C13.1667 13.1666 13.7 12.6666 15.025 12.6666H18.3917C19.7167 12.6666 20.25 13.1666 20.25 14.4166Z" stroke="#292D32" stroke-width="1.5" stroke-linecap="round" stroke-linejoin="round"/>
</svg>
