<svg width="43" height="42" viewBox="0 0 43 42" fill="none" xmlns="http://www.w3.org/2000/svg">
<path d="M25.6667 28.2917H21.5C21.1583 28.2917 20.875 28.0084 20.875 27.6667C20.875 27.325 21.1583 27.0417 21.5 27.0417H25.6667C28.05 27.0417 29.2083 25.8834 29.2083 23.5V18.5C29.2083 16.1167 28.05 14.9584 25.6667 14.9584H17.3333C14.95 14.9584 13.7917 16.1167 13.7917 18.5V20.1667C13.7917 20.5084 13.5083 20.7917 13.1667 20.7917C12.825 20.7917 12.5417 20.5084 12.5417 20.1667V18.5C12.5417 15.4584 14.2917 13.7084 17.3333 13.7084H25.6667C28.7083 13.7084 30.4583 15.4584 30.4583 18.5V23.5C30.4583 26.5417 28.7083 28.2917 25.6667 28.2917Z" fill="#292D32"/>
<path d="M21.5 23.7083C20.0083 23.7083 18.7917 22.4916 18.7917 21C18.7917 19.5083 20.0083 18.2916 21.5 18.2916C22.9917 18.2916 24.2083 19.5083 24.2083 21C24.2083 22.4916 22.9917 23.7083 21.5 23.7083ZM21.5 19.5416C20.7 19.5416 20.0417 20.2 20.0417 21C20.0417 21.8 20.7 22.4583 21.5 22.4583C22.3 22.4583 22.9583 21.8 22.9583 21C22.9583 20.2 22.3 19.5416 21.5 19.5416Z" fill="#292D32"/>
<path d="M26.9167 23.7083C26.575 23.7083 26.2917 23.425 26.2917 23.0833V18.9166C26.2917 18.575 26.575 18.2916 26.9167 18.2916C27.2583 18.2916 27.5417 18.575 27.5417 18.9166V23.0833C27.5417 23.425 27.2583 23.7083 26.9167 23.7083Z" fill="#292D32"/>
<path d="M18.5833 26.575C18.2417 26.575 17.9583 26.2916 17.9583 25.95V24.8833C17.9583 24.6999 17.8084 24.5416 17.6167 24.5416H13.1667C12.825 24.5416 12.5417 24.2583 12.5417 23.9166C12.5417 23.575 12.825 23.2916 13.1667 23.2916H17.6167C18.4917 23.2916 19.2083 24.0083 19.2083 24.8833V25.95C19.2083 26.2916 18.925 26.575 18.5833 26.575Z" fill="#292D32"/>
<path d="M14.1833 25.5583C14.025 25.5583 13.8666 25.5 13.7416 25.375L12.725 24.3584C12.4833 24.1167 12.4833 23.7167 12.725 23.475L13.7416 22.4583C13.9833 22.2167 14.3833 22.2167 14.625 22.4583C14.8666 22.7 14.8666 23.1 14.625 23.3417L14.05 23.9167L14.625 24.4917C14.8666 24.7334 14.8666 25.1334 14.625 25.375C14.5 25.5 14.3416 25.5583 14.1833 25.5583Z" fill="#292D32"/>
<path d="M18.5833 28.9418H14.1333C13.2583 28.9418 12.5417 28.2251 12.5417 27.3501V26.2834C12.5417 25.9418 12.825 25.6584 13.1667 25.6584C13.5083 25.6584 13.7917 25.9418 13.7917 26.2834V27.3501C13.7917 27.5334 13.9416 27.6918 14.1333 27.6918H18.5833C18.925 27.6918 19.2083 27.9751 19.2083 28.3168C19.2083 28.6584 18.925 28.9418 18.5833 28.9418Z" fill="#292D32"/>
<path d="M17.5665 29.9584C17.4081 29.9584 17.2498 29.9 17.1248 29.775C16.8831 29.5334 16.8831 29.1333 17.1248 28.8917L17.6998 28.3167L17.1248 27.7417C16.8831 27.5 16.8831 27.1 17.1248 26.8584C17.3664 26.6167 17.7664 26.6167 18.0081 26.8584L19.0248 27.875C19.2665 28.1167 19.2665 28.5167 19.0248 28.7583L18.0081 29.775C17.8914 29.9 17.7248 29.9584 17.5665 29.9584Z" fill="#292D32"/>
</svg>
