<svg width="43" height="42" viewBox="0 0 43 42" fill="none" xmlns="http://www.w3.org/2000/svg">
<path d="M19.925 20.2917H17.7167C17.1917 20.2917 16.7667 20.7167 16.7667 21.2417V25.5084H19.925V20.2917V20.2917Z" stroke="#292D32" stroke-width="1.5" stroke-miterlimit="10" stroke-linecap="round" stroke-linejoin="round"/>
<path d="M22.1344 16.5H20.8677C20.3427 16.5 19.9177 16.925 19.9177 17.45V25.5H23.076V17.45C23.076 16.925 22.6594 16.5 22.1344 16.5Z" fill="white" stroke="#292D32" stroke-width="1.5" stroke-miterlimit="10" stroke-linecap="round" stroke-linejoin="round"/>
<path d="M25.2901 21.7084H23.0818V25.5001H26.2401V22.6584C26.2318 22.1334 25.8068 21.7084 25.2901 21.7084Z" stroke="#292D32" stroke-width="1.5" stroke-miterlimit="10" stroke-linecap="round" stroke-linejoin="round"/>
<path d="M19 29.3333H24C28.1667 29.3333 29.8333 27.6666 29.8333 23.5V18.5C29.8333 14.3333 28.1667 12.6666 24 12.6666H19C14.8333 12.6666 13.1667 14.3333 13.1667 18.5V23.5C13.1667 27.6666 14.8333 29.3333 19 29.3333Z" stroke="#292D32" stroke-width="1.5" stroke-linecap="round" stroke-linejoin="round"/>
</svg>
