<svg width="43" height="42" viewBox="0 0 43 42" fill="none" xmlns="http://www.w3.org/2000/svg">
<path d="M21.5 24.125C19.775 24.125 18.375 22.725 18.375 21C18.375 19.275 19.775 17.875 21.5 17.875C23.225 17.875 24.625 19.275 24.625 21C24.625 22.725 23.225 24.125 21.5 24.125ZM21.5 19.125C20.4667 19.125 19.625 19.9667 19.625 21C19.625 22.0333 20.4667 22.875 21.5 22.875C22.5333 22.875 23.375 22.0333 23.375 21C23.375 19.9667 22.5333 19.125 21.5 19.125Z" fill="#292D32"/>
<path d="M24.175 29.4916C24 29.4916 23.825 29.4666 23.65 29.425C23.1333 29.2833 22.7 28.9583 22.425 28.5L22.325 28.3333C21.8333 27.4833 21.1583 27.4833 20.6667 28.3333L20.575 28.4916C20.3 28.9583 19.8667 29.2916 19.35 29.425C18.825 29.5666 18.2833 29.4916 17.825 29.2166L16.3917 28.3916C15.8833 28.1 15.5167 27.625 15.3583 27.05C15.2083 26.475 15.2833 25.8833 15.575 25.375C15.8167 24.95 15.8833 24.5666 15.7417 24.325C15.6 24.0833 15.2417 23.9416 14.75 23.9416C13.5333 23.9416 12.5417 22.95 12.5417 21.7333V20.2666C12.5417 19.05 13.5333 18.0583 14.75 18.0583C15.2417 18.0583 15.6 17.9166 15.7417 17.675C15.8833 17.4333 15.825 17.05 15.575 16.625C15.2833 16.1166 15.2083 15.5166 15.3583 14.95C15.5083 14.375 15.875 13.9 16.3917 13.6083L17.8333 12.7833C18.775 12.225 20.0167 12.55 20.5833 13.5083L20.6833 13.675C21.175 14.525 21.85 14.525 22.3417 13.675L22.4333 13.5166C23 12.55 24.2417 12.225 25.1917 12.7916L26.625 13.6166C27.1333 13.9083 27.5 14.3833 27.6583 14.9583C27.8083 15.5333 27.7333 16.125 27.4417 16.6333C27.2 17.0583 27.1333 17.4416 27.275 17.6833C27.4167 17.925 27.775 18.0666 28.2667 18.0666C29.4833 18.0666 30.475 19.0583 30.475 20.275V21.7416C30.475 22.9583 29.4833 23.95 28.2667 23.95C27.775 23.95 27.4167 24.0916 27.275 24.3333C27.1333 24.575 27.1917 24.9583 27.4417 25.3833C27.7333 25.8916 27.8167 26.4916 27.6583 27.0583C27.5083 27.6333 27.1417 28.1083 26.625 28.4L25.1833 29.225C24.8667 29.4 24.525 29.4916 24.175 29.4916ZM21.5 26.4083C22.2417 26.4083 22.9333 26.875 23.4083 27.7L23.5 27.8583C23.6 28.0333 23.7667 28.1583 23.9667 28.2083C24.1667 28.2583 24.3667 28.2333 24.5333 28.1333L25.975 27.3C26.1917 27.175 26.3583 26.9666 26.425 26.7166C26.4917 26.4666 26.4583 26.2083 26.3333 25.9916C25.8583 25.175 25.8 24.3333 26.1667 23.6916C26.5333 23.05 27.2917 22.6833 28.2417 22.6833C28.775 22.6833 29.2 22.2583 29.2 21.725V20.2583C29.2 19.7333 28.775 19.3 28.2417 19.3C27.2917 19.3 26.5333 18.9333 26.1667 18.2916C25.8 17.65 25.8583 16.8083 26.3333 15.9916C26.4583 15.775 26.4917 15.5166 26.425 15.2666C26.3583 15.0166 26.2 14.8166 25.9833 14.6833L24.5417 13.8583C24.1833 13.6416 23.7083 13.7666 23.4917 14.1333L23.4 14.2916C22.925 15.1166 22.2333 15.5833 21.4917 15.5833C20.75 15.5833 20.0583 15.1166 19.5833 14.2916L19.4917 14.125C19.2833 13.775 18.8167 13.65 18.4583 13.8583L17.0167 14.6916C16.8 14.8166 16.6333 15.025 16.5667 15.275C16.5 15.525 16.5333 15.7833 16.6583 16C17.1333 16.8166 17.1917 17.6583 16.825 18.3C16.4583 18.9416 15.7 19.3083 14.75 19.3083C14.2167 19.3083 13.7917 19.7333 13.7917 20.2666V21.7333C13.7917 22.2583 14.2167 22.6916 14.75 22.6916C15.7 22.6916 16.4583 23.0583 16.825 23.7C17.1917 24.3416 17.1333 25.1833 16.6583 26C16.5333 26.2166 16.5 26.475 16.5667 26.725C16.6333 26.975 16.7917 27.175 17.0083 27.3083L18.45 28.1333C18.625 28.2416 18.8333 28.2666 19.025 28.2166C19.225 28.1666 19.3917 28.0333 19.5 27.8583L19.5917 27.7C20.0667 26.8833 20.7583 26.4083 21.5 26.4083Z" fill="#292D32"/>
</svg>
