<svg width="43" height="42" viewBox="0 0 43 42" fill="none" xmlns="http://www.w3.org/2000/svg">
<path d="M18.1667 15.7916C17.825 15.7916 17.5417 15.5083 17.5417 15.1666V12.6666C17.5417 12.325 17.825 12.0416 18.1667 12.0416C18.5083 12.0416 18.7917 12.325 18.7917 12.6666V15.1666C18.7917 15.5083 18.5083 15.7916 18.1667 15.7916Z" fill="#292D32"/>
<path d="M24.8333 15.7916C24.4917 15.7916 24.2083 15.5083 24.2083 15.1666V12.6666C24.2083 12.325 24.4917 12.0416 24.8333 12.0416C25.175 12.0416 25.4583 12.325 25.4583 12.6666V15.1666C25.4583 15.5083 25.175 15.7916 24.8333 15.7916Z" fill="#292D32"/>
<path d="M18.5833 23.0833C18.475 23.0833 18.3667 23.0583 18.2667 23.0167C18.1583 22.975 18.075 22.9166 17.9917 22.8416C17.8417 22.6833 17.75 22.475 17.75 22.25C17.75 22.1416 17.775 22.0333 17.8167 21.9333C17.8583 21.8333 17.9167 21.7416 17.9917 21.6583C18.075 21.5833 18.1583 21.525 18.2667 21.4833C18.5667 21.3583 18.9417 21.425 19.175 21.6583C19.325 21.8166 19.4167 22.0333 19.4167 22.25C19.4167 22.3 19.4083 22.3583 19.4 22.4167C19.3917 22.4667 19.375 22.5166 19.35 22.5666C19.3333 22.6166 19.3083 22.6666 19.275 22.7166C19.25 22.7583 19.2083 22.8 19.175 22.8416C19.0167 22.9916 18.8 23.0833 18.5833 23.0833Z" fill="#292D32"/>
<path d="M21.5 23.0833C21.3917 23.0833 21.2833 23.0584 21.1833 23.0167C21.075 22.975 20.9917 22.9167 20.9083 22.8417C20.7583 22.6833 20.6667 22.475 20.6667 22.25C20.6667 22.1417 20.6917 22.0333 20.7333 21.9333C20.775 21.8333 20.8333 21.7417 20.9083 21.6584C20.9917 21.5834 21.075 21.525 21.1833 21.4833C21.4833 21.35 21.8583 21.425 22.0917 21.6584C22.2417 21.8167 22.3333 22.0333 22.3333 22.25C22.3333 22.3 22.325 22.3584 22.3167 22.4167C22.3083 22.4667 22.2917 22.5167 22.2667 22.5667C22.25 22.6167 22.225 22.6667 22.1917 22.7167C22.1667 22.7583 22.125 22.8 22.0917 22.8417C21.9333 22.9917 21.7167 23.0833 21.5 23.0833Z" fill="#292D32"/>
<path d="M24.4167 23.0833C24.3083 23.0833 24.2 23.0584 24.1 23.0167C23.9917 22.975 23.9083 22.9167 23.825 22.8417C23.7917 22.8 23.7583 22.7583 23.725 22.7167C23.6917 22.6667 23.6667 22.6167 23.65 22.5667C23.625 22.5167 23.6083 22.4667 23.6 22.4167C23.5917 22.3584 23.5833 22.3 23.5833 22.25C23.5833 22.0333 23.675 21.8167 23.825 21.6584C23.9083 21.5834 23.9917 21.525 24.1 21.4833C24.4083 21.35 24.775 21.425 25.0083 21.6584C25.1583 21.8167 25.25 22.0333 25.25 22.25C25.25 22.3 25.2417 22.3584 25.2333 22.4167C25.225 22.4667 25.2083 22.5167 25.1833 22.5667C25.1667 22.6167 25.1417 22.6667 25.1083 22.7167C25.0833 22.7583 25.0417 22.8 25.0083 22.8417C24.85 22.9917 24.6333 23.0833 24.4167 23.0833Z" fill="#292D32"/>
<path d="M18.5833 26C18.475 26 18.3667 25.975 18.2667 25.9333C18.1667 25.8917 18.075 25.8333 17.9917 25.7583C17.8417 25.6 17.75 25.3833 17.75 25.1667C17.75 25.0583 17.775 24.95 17.8167 24.85C17.8583 24.7417 17.9167 24.65 17.9917 24.575C18.3 24.2667 18.8667 24.2667 19.175 24.575C19.325 24.7333 19.4167 24.95 19.4167 25.1667C19.4167 25.3833 19.325 25.6 19.175 25.7583C19.0167 25.9083 18.8 26 18.5833 26Z" fill="#292D32"/>
<path d="M21.5 26C21.2833 26 21.0667 25.9083 20.9083 25.7583C20.7583 25.6 20.6667 25.3833 20.6667 25.1667C20.6667 25.0583 20.6917 24.95 20.7333 24.85C20.775 24.7417 20.8333 24.65 20.9083 24.575C21.2167 24.2667 21.7833 24.2667 22.0917 24.575C22.1667 24.65 22.225 24.7417 22.2667 24.85C22.3083 24.95 22.3333 25.0583 22.3333 25.1667C22.3333 25.3833 22.2417 25.6 22.0917 25.7583C21.9333 25.9083 21.7167 26 21.5 26Z" fill="#292D32"/>
<path d="M24.4167 26C24.2 26 23.9833 25.9084 23.825 25.7584C23.75 25.6834 23.6917 25.5917 23.65 25.4834C23.6083 25.3834 23.5833 25.275 23.5833 25.1667C23.5833 25.0584 23.6083 24.95 23.65 24.85C23.6917 24.7417 23.75 24.6501 23.825 24.5751C24.0167 24.3834 24.3083 24.2917 24.575 24.35C24.6333 24.3584 24.6833 24.375 24.7333 24.4C24.7833 24.4167 24.8333 24.4417 24.8833 24.4751C24.925 24.5001 24.9667 24.5417 25.0083 24.5751C25.1583 24.7334 25.25 24.95 25.25 25.1667C25.25 25.3834 25.1583 25.6 25.0083 25.7584C24.85 25.9084 24.6333 26 24.4167 26Z" fill="#292D32"/>
<path d="M28.5833 19.2H14.4167C14.075 19.2 13.7917 18.9166 13.7917 18.575C13.7917 18.2333 14.075 17.95 14.4167 17.95H28.5833C28.925 17.95 29.2083 18.2333 29.2083 18.575C29.2083 18.9166 28.925 19.2 28.5833 19.2Z" fill="#292D32"/>
<path d="M24.8333 29.9583H18.1667C15.125 29.9583 13.375 28.2083 13.375 25.1666V18.0833C13.375 15.0416 15.125 13.2916 18.1667 13.2916H24.8333C27.875 13.2916 29.625 15.0416 29.625 18.0833V25.1666C29.625 28.2083 27.875 29.9583 24.8333 29.9583ZM18.1667 14.5416C15.7833 14.5416 14.625 15.7 14.625 18.0833V25.1666C14.625 27.55 15.7833 28.7083 18.1667 28.7083H24.8333C27.2167 28.7083 28.375 27.55 28.375 25.1666V18.0833C28.375 15.7 27.2167 14.5416 24.8333 14.5416H18.1667Z" fill="#292D32"/>
</svg>
