<svg width="76" height="65" viewBox="0 0 76 65" fill="none" xmlns="http://www.w3.org/2000/svg">
<g filter="url(#filter0_d_1_2990)">
<rect x="5.5" y="2" width="54" height="54" rx="15" fill="url(#paint0_linear_1_2990)" fill-opacity="0.2"/>
<rect x="6" y="2.5" width="53" height="53" rx="14.5" stroke="url(#paint1_linear_1_2990)" stroke-opacity="0.1"/>
<rect x="11.5" y="8" width="42" height="42" rx="12" fill="url(#paint2_linear_1_2990)"/>
<path d="M31.9333 21.5H26.7417C25.0833 21.5 24.25 22.3417 24.25 24.0167V37.3333H28.75V34.2083C28.75 33.8667 29.0333 33.5833 29.375 33.5833C29.7167 33.5833 30 33.8583 30 34.2083V37.3333H34.4167V24.0167C34.4167 22.3417 33.5917 21.5 31.9333 21.5ZM31.4583 29.625H27.3333C26.9917 29.625 26.7083 29.3417 26.7083 29C26.7083 28.6583 26.9917 28.375 27.3333 28.375H31.4583C31.8 28.375 32.0833 28.6583 32.0833 29C32.0833 29.3417 31.8 29.625 31.4583 29.625ZM31.4583 26.5H27.3333C26.9917 26.5 26.7083 26.2167 26.7083 25.875C26.7083 25.5333 26.9917 25.25 27.3333 25.25H31.4583C31.8 25.25 32.0833 25.5333 32.0833 25.875C32.0833 26.2167 31.8 26.5 31.4583 26.5Z" fill="white"/>
<path d="M41.6667 36.7084H39.775V34.2084C40.5667 33.95 41.1417 33.2083 41.1417 32.3333V30.6667C41.1417 29.575 40.25 28.6833 39.1583 28.6833C38.0667 28.6833 37.175 29.575 37.175 30.6667V32.3333C37.175 33.2 37.7417 33.9333 38.5167 34.2V36.7084H23.3333C22.9917 36.7084 22.7083 36.9917 22.7083 37.3334C22.7083 37.675 22.9917 37.9584 23.3333 37.9584H39.1083C39.125 37.9584 39.1333 37.9667 39.15 37.9667C39.1667 37.9667 39.175 37.9584 39.1917 37.9584H41.6667C42.0083 37.9584 42.2917 37.675 42.2917 37.3334C42.2917 36.9917 42.0083 36.7084 41.6667 36.7084Z" fill="white"/>
</g>
<defs>
<filter id="filter0_d_1_2990" x="-4.76837e-07" y="-2.38419e-07" width="342" height="65" filterUnits="userSpaceOnUse" color-interpolation-filters="sRGB">
<feFlood flood-opacity="0" result="BackgroundImageFix"/>
<feColorMatrix in="SourceAlpha" type="matrix" values="0 0 0 0 0 0 0 0 0 0 0 0 0 0 0 0 0 0 127 0" result="hardAlpha"/>
<feOffset dy="3.5"/>
<feGaussianBlur stdDeviation="2.75"/>
<feColorMatrix type="matrix" values="0 0 0 0 0 0 0 0 0 0 0 0 0 0 0 0 0 0 0.02 0"/>
<feBlend mode="normal" in2="BackgroundImageFix" result="effect1_dropShadow_1_2990"/>
<feBlend mode="normal" in="SourceGraphic" in2="effect1_dropShadow_1_2990" result="shape"/>
</filter>
<linearGradient id="paint0_linear_1_2990" x1="32.5" y1="2" x2="32.5" y2="56" gradientUnits="userSpaceOnUse">
<stop stop-color="#00A79D"/>
<stop offset="1" stop-color="#6EC282"/>
</linearGradient>
<linearGradient id="paint1_linear_1_2990" x1="59.5" y1="-60.5" x2="-30.2067" y2="-46.6656" gradientUnits="userSpaceOnUse">
<stop stop-color="#2E9E3A"/>
<stop offset="1" stop-color="#0099D6"/>
</linearGradient>
<linearGradient id="paint2_linear_1_2990" x1="32.5" y1="8" x2="32.5" y2="50" gradientUnits="userSpaceOnUse">
<stop stop-color="#00A79D"/>
<stop offset="1" stop-color="#6EC282"/>
</linearGradient>
</defs>
</svg>
