<svg width="28" height="28" viewBox="0 0 28 28" fill="none" xmlns="http://www.w3.org/2000/svg">
<path d="M12.02 22.53C9.68999 22.53 7.35999 22.16 5.14999 21.42C4.30999 21.13 3.66999 20.54 3.38999 19.77C3.09999 19 3.19999 18.15 3.65999 17.39L4.80999 15.48C5.04999 15.08 5.26999 14.28 5.26999 13.81V10.92C5.26999 7.20004 8.29999 4.17004 12.02 4.17004C15.74 4.17004 18.77 7.20004 18.77 10.92V13.81C18.77 14.27 18.99 15.08 19.23 15.49L20.37 17.39C20.8 18.11 20.88 18.98 20.59 19.77C20.3 20.56 19.67 21.16 18.88 21.42C16.68 22.16 14.35 22.53 12.02 22.53ZM12.02 5.67004C9.12999 5.67004 6.76999 8.02004 6.76999 10.92V13.81C6.76999 14.54 6.46999 15.62 6.09999 16.25L4.94999 18.16C4.72999 18.53 4.66999 18.92 4.79999 19.25C4.91999 19.59 5.21999 19.85 5.62999 19.99C9.80999 21.39 14.24 21.39 18.42 19.99C18.78 19.87 19.06 19.6 19.19 19.24C19.32 18.88 19.29 18.49 19.09 18.16L17.94 16.25C17.56 15.6 17.27 14.53 17.27 13.8V10.92C17.27 8.02004 14.92 5.67004 12.02 5.67004Z" fill="#212529"/>
<path d="M13.88 5.94005C13.81 5.94005 13.74 5.93005 13.67 5.91005C13.38 5.83005 13.1 5.77005 12.83 5.73005C11.98 5.62005 11.16 5.68005 10.39 5.91005C10.11 6.00005 9.80999 5.91005 9.61999 5.70005C9.42999 5.49005 9.36999 5.19005 9.47999 4.92005C9.88999 3.87005 10.89 3.18005 12.03 3.18005C13.17 3.18005 14.17 3.86005 14.58 4.92005C14.68 5.19005 14.63 5.49005 14.44 5.70005C14.29 5.86005 14.08 5.94005 13.88 5.94005Z" fill="#212529"/>
<path d="M12.02 24.8101C11.03 24.8101 10.07 24.4101 9.37002 23.7101C8.67002 23.0101 8.27002 22.0501 8.27002 21.0601H9.77002C9.77002 21.6501 10.01 22.2301 10.43 22.6501C10.85 23.0701 11.43 23.3101 12.02 23.3101C13.26 23.3101 14.27 22.3001 14.27 21.0601H15.77C15.77 23.1301 14.09 24.8101 12.02 24.8101Z" fill="#212529"/>
<rect x="12" width="16" height="16" rx="8" fill="#B3261E"/>
<path d="M18.9849 7.50439H19.7583C20.0591 7.50439 20.3079 7.45247 20.5049 7.34863C20.7054 7.24479 20.854 7.10156 20.9507 6.91895C21.0474 6.73633 21.0957 6.52686 21.0957 6.29053C21.0957 6.04346 21.0509 5.83219 20.9614 5.65674C20.8755 5.4777 20.743 5.33984 20.564 5.24316C20.3885 5.14648 20.1647 5.09814 19.8926 5.09814C19.6634 5.09814 19.4557 5.14469 19.2695 5.23779C19.0869 5.32731 18.9419 5.45622 18.8345 5.62451C18.7271 5.78923 18.6733 5.98617 18.6733 6.21533H17.3735C17.3735 5.79997 17.4827 5.43115 17.7012 5.10889C17.9196 4.78662 18.2168 4.53418 18.5928 4.35156C18.9723 4.16536 19.3984 4.07227 19.8711 4.07227C20.376 4.07227 20.8164 4.15641 21.1924 4.32471C21.5719 4.48942 21.8674 4.73649 22.0786 5.06592C22.2899 5.39535 22.3955 5.80355 22.3955 6.29053C22.3955 6.51253 22.3436 6.73812 22.2397 6.96729C22.1359 7.19645 21.9819 7.40592 21.7778 7.5957C21.5737 7.7819 21.3195 7.93408 21.0151 8.05225C20.7108 8.16683 20.3581 8.22412 19.957 8.22412H18.9849V7.50439ZM18.9849 8.51416V7.80518H19.957C20.4154 7.80518 20.8057 7.85889 21.1279 7.96631C21.4538 8.07373 21.7188 8.22233 21.9229 8.41211C22.127 8.59831 22.2756 8.81136 22.3687 9.05127C22.4653 9.29118 22.5137 9.54541 22.5137 9.81396C22.5137 10.1792 22.4474 10.505 22.3149 10.7915C22.186 11.0744 22.0016 11.3143 21.7617 11.5112C21.5218 11.7082 21.2407 11.8568 20.9185 11.957C20.5998 12.0573 20.2524 12.1074 19.8765 12.1074C19.5399 12.1074 19.2176 12.0609 18.9097 11.9678C18.6017 11.8747 18.326 11.7368 18.0825 11.5542C17.839 11.368 17.6457 11.137 17.5024 10.8613C17.3628 10.582 17.293 10.2598 17.293 9.89453H18.5874C18.5874 10.1273 18.6411 10.3332 18.7485 10.5122C18.8595 10.6877 19.0135 10.8255 19.2104 10.9258C19.411 11.026 19.6401 11.0762 19.8979 11.0762C20.1701 11.0762 20.4046 11.0278 20.6016 10.9312C20.7985 10.8345 20.9489 10.6912 21.0527 10.5015C21.1602 10.3117 21.2139 10.0825 21.2139 9.81396C21.2139 9.5096 21.1548 9.26253 21.0366 9.07275C20.9185 8.88298 20.7502 8.74333 20.5317 8.65381C20.3133 8.56071 20.0555 8.51416 19.7583 8.51416H18.9849Z" fill="white"/>
</svg>
