<svg width="542" height="202" viewBox="0 0 542 202" fill="none" xmlns="http://www.w3.org/2000/svg">
<g clip-path="url(#clip0_1_3462)">
<path d="M272.044 26.1882C261.024 26.1882 252.044 35.1682 252.044 46.1882C252.044 57.2082 261.024 66.1882 272.044 66.1882C283.064 66.1882 292.044 57.2082 292.044 46.1882C292.044 35.1682 283.064 26.1882 272.044 26.1882ZM281.604 41.5882L270.264 52.9282C269.984 53.2082 269.604 53.3682 269.204 53.3682C268.804 53.3682 268.424 53.2082 268.144 52.9282L262.484 47.2682C261.904 46.6882 261.904 45.7282 262.484 45.1482C263.064 44.5682 264.024 44.5682 264.604 45.1482L269.204 49.7482L279.484 39.4682C280.064 38.8882 281.024 38.8882 281.604 39.4682C282.184 40.0482 282.184 40.9882 281.604 41.5882Z" fill="#2E9E3A"/>
<circle cx="272.045" cy="46.1882" r="27.5" transform="rotate(60 272.045 46.1882)" stroke="#A7D9C3"/>
<circle cx="298.839" cy="52.5972" r="1" transform="rotate(-15 298.839 52.5972)" fill="#2E9E3A"/>
<circle cx="261.137" cy="20.8654" r="2" transform="rotate(-15 261.137 20.8654)" fill="#2E9E3A"/>
<circle cx="245.688" cy="53.7082" r="2" transform="rotate(-15 245.688 53.7082)" fill="#2E9E3A"/>
<circle cx="290.137" cy="25.7673" r="3" transform="rotate(-15 290.137 25.7673)" fill="#2E9E3A"/>
<circle cx="273.162" cy="73.6316" r="3" transform="rotate(-15 273.162 73.6316)" fill="#2E9E3A"/>
<path d="M10.5786 202.594L13.0204 205.075C13.0204 205.075 10.489 205.093 8.85712 208.313C7.22522 211.533 9.35314 214.17 6.67955 216.503L3.84905 213.948C4.60618 213.369 5.2334 212.638 5.69014 211.801C6.14687 210.965 6.42296 210.042 6.50053 209.092C6.59328 206.829 6.88921 204.21 10.5786 202.594Z" fill="#00A79D"/>
<path d="M20.3238 202.819L24.5014 202.694C24.5014 202.694 25.1522 208.047 20.924 208.426C20.9194 208.435 22.8816 206.178 20.3238 202.819Z" fill="#F79009"/>
<path d="M542.637 186.849L546.727 187.265C546.727 187.265 548.393 184.403 544.958 181.917C544.913 181.94 545.985 185.758 542.637 186.849Z" fill="#00A79D"/>
</g>
<defs>
<clipPath id="clip0_1_3462">
<rect width="541.493" height="201.92" fill="white" transform="translate(0.253906)"/>
</clipPath>
</defs>
</svg>
